<svg width="38" height="32" viewBox="0 0 38 32" xmlns="http://www.w3.org/2000/svg"><path d="M21.18 14.608c0 .193.117.476.372.394l.022.011c-.04.216-.418.413-.592.158-.154.33-.118.638.215.819v.05a.43.43 0 0 1-.65-.167c-.272.207-.233.65-.068.802 0 .002-.753.454-1.437.13-.454-.22-.823-.502-1.409-.456.082-.832.492-1.051 1.246-1.17.603-.1.68-.38.594-.593-.206-.055-.58.136-.58.136-.068-.114.03-.234.03-.234l-.056-.2c.421 0 .496-.093.496-.093.075-.446-.372-.493-.712-.253-.158-.142-.133-.331-.133-.331l-.077-.13c0-.105.5-.39.629-.424.033-.147.214-.351.744-.303.064-.142-.04-.663-.105-.803l.056-.037c.186.12.37.558.496.567l.625-.3.113.693c.08.098.54.002.741.089l.003.068c-.15.025-.63.235-.709.37.275.42.146 1.036.146 1.207Zm-5.323.344-.248-.029-.01.01c.034.08.177.32.387.32.095 0 .235-.055.274-.121 0 0 .825.272 1.232.386a1.422 1.422 0 0 0-.277.75c-.329-.204-1.644-.92-1.644-.92l-.408.565c-.066.094-.393-.147-.325-.242l.312-.43c-.103-.112-.352-.042-.42-.022l-.008-.02c.038-.084.193-.347.581-.228.001-.24-.351-.163-.443-.138l-.005-.012c.095-.104.382-.339.703-.147l.138-.194-.281-.302.176-.246.198.27 1.518-2.109c.037-.051.338-.14.451-.164.013.118.025.434-.01.485l-1.493 2.129.314.104-.174.248-.372-.175-.166.232ZM27.18 26.049l.009-.027c-.197-.13-.35-.31-.35-.51 0-.353.669-.818.99-.818.19 0 .326.23.693.23.19 0 .411-.077.596-.311l-.017-.027c-.152.024-.566.128-.76-.63-.199-.79-.266-1.364.079-1.666.292-.255 1.577-.75 2.284-1.024v-.05c-.194-.054-.386-.175-.41-.42-.019-.151.012-.359.183-.461-.35-.384-1.043-.65-1.408-.65-1.4 0-2.587 1.923-3.154 1.923-.072 0-.164-.027-.246-.15l-.04.015c0 .58.304.632.465.632a.522.522 0 0 0 .26-.068l.028.018-.004.122c0 .684.705 1.432.705 1.432-.32.336-1.116.902-1.339.601-.094-.122-.512-.884-1.069-.277l.03.047c.315 0 .56.218.476.547-.452-.365-1.077-.307-1.077.538l.05.017c.298-.435.768-.14.836-.078-.315.048-.863.425-.382 1.093h.042c.05-.44.313-.513.528-.513.442 0 .764.412 1.102-.027.122.572.748.519.9.492Zm-15.462-.492c.337.439.66.027 1.102.027.215 0 .478.074.528.513h.042c.482-.668-.067-1.045-.383-1.093.069-.062.54-.357.838.078l.049-.017c0-.845-.625-.903-1.077-.538-.084-.329.16-.547.475-.547l.032-.047c-.559-.607-.976.155-1.07.277-.224.3-1.02-.265-1.338-.601 0 0 .704-.748.704-1.432l-.005-.122.028-.018c.071.04.17.07.26.068.161 0 .465-.052.465-.632l-.039-.016c-.083.124-.175.151-.246.151-.568 0-1.756-1.924-3.154-1.924-.365 0-1.057.267-1.408.65.17.103.202.31.185.462-.026.245-.217.366-.412.42v.05c.706.274 1.992.77 2.284 1.024.345.302.278.876.078 1.665-.193.76-.607.655-.759.63l-.016.028c.183.234.404.312.595.312.366 0 .503-.231.693-.231.32 0 .99.465.99.819 0 .198-.153.378-.35.509l.008.027c.154.027.78.08.901-.492Zm6.603-11.438c.243-.063.511-.034.54-.025l-.007.08c-.508.065-.531.302-.856.302-.214 0-.445-.218-.358-.54l.052-.004c.033.14.23.29.629.187Zm1.274-.867c-.346-.02-.567.057-.556.17.167.178.39.158.556-.17Zm-2.91 9.123c-.192.238-.36.01-.613.01-.237 0-.277.202-.283.283l-.019.004c-.27-.373.032-.576.207-.603-.025-.026-.29-.207-.458.041l-.03-.011c-.008-.463.354-.496.592-.292.043-.176-.069-.293-.261-.303l-.018-.026.238-.129c.255 0 .287.326.452.326.25 0 .6-.34.636-.377-.008-.018-.246-.672-.199-1.064l-.017-.011c-.12.067-.426.065-.426-.316l.026-.008c.134.187.351-.024.459-.148.118-.132.743-1.057 1.58-1.057.183.001.42.103.612.237-.29.356-.003.697.21.654l.006.027c-1.104.421-1.598.59-1.598 1.529 0 .49.166.76.449.697l.012.02a.414.414 0 0 1-.32.165c-.229 0-.27-.127-.393-.127-.127 0-.538.246-.538.451 0 .077.048.182.193.28l-.004.014c-.092.018-.418.047-.494-.266Zm-1.49-3.984-.433-.114-.035.054-.501-.223.448-.003.022-.048-.382-.38.493.186.03-.035-.329-.49.485.33.036-.027-.23-.576.442.424.038-.02-.122-.575.324.48.045-.013.01-.526.206.482.056-.007.167-.407.018.547-.071.014-.091.66c.644-.153 1.446-1.272 2.062-1.272.733 0 1 .872 2.354.43.341.514.46.96.592 1.577.523.5 1.257.333 1.257-.196 0-.712-.764-.847-.764-1.589 0-.332.229-.809.854-.809.33 0 .814.144 1.093.144.33 0 .401-.243.438-.343l.112.008c-.01.07.039.166.039.326 0 .47-.674.531-.758.473l-.034.033c.1.083.078.362-.042.54l-.038-.002c-.072-.337-.46-.752-.804-.752-.126 0-.377.075-.377.37 0 .423.835.806.835 1.683 0 .91-.889 1.127-1.783.902.031.861 1.3 1.373 1.33.757h.036c.189.264.103.465-.137.567.22.1.26.553.326.823.097.405.52.18.541.168l.021.026c-.16.42-.585.262-.585.262-.224.159.046.301.248.363l.005.04c-.15.056-.469.158-.623-.114-.115.28-.35.273-.442.273-.164 0-.273.17-.234.396l-.025.013c-.39-.26-.166-.568-.009-.645-.028-.018-.295-.13-.41.188l-.032.003c-.17-.46.2-.593.468-.477-.018-.064-.157-.29-.51-.217l-.016-.026c.057-.14.232-.347.551-.137.163.103.445-.048.47-.061-.568-1.146-1.67-.186-1.916-1.084l-.042.014c-.06.192-.54.205-.629-.172l.023-.014c.07.072.222.137.42-.155.132-.192.15-.45.15-.624 0-.698-.685-1.867-1.756-1.867-.676 0-1.403.268-1.943.666l.503.118a.78.78 0 0 1-.986.689l.078-.59c-.078.024-.274.095-.38.248l-.027-.005c-.092-.334.18-.503.265-.547l-.009-.013a.483.483 0 0 0-.419.235l-.02-.001c-.02-.06-.062-.234.052-.356ZM19 29.208c4.266 0 8.599.227 9.165.878l.064-.039.001-2.294c0-.67-4.47-1.06-9.23-1.06-4.76 0-9.23.39-9.23 1.06v2.294l.066.04c.565-.652 4.898-.88 9.164-.88Zm6.96 1.024v.995c0 1.691 2.746.105 5.395-.066 2.2-.146 2.814.423 2.814.423l-.404-2.256c-.02-.122-.496-.47-2.014-.47-1.824 0-2.739.354-3.073.473v1.186c0 .27-.134.401-.336.484 0-.099-.304-.769-2.381-.769Zm-16.302.77c-.202-.084-.336-.215-.336-.485V29.33c-.334-.119-1.249-.472-3.074-.472-1.517 0-1.993.347-2.014.47l-.403 2.255s.614-.57 2.814-.423c2.649.171 5.394 1.757 5.394.066v-.995c-2.077 0-2.38.67-2.38.77Zm5.052-19.55c-.637.143-1.094.276-1.3.34.012-.287.119-.55.369-.61l.01-.071c-.567-.383-.871.35-.88.373-.201-.015-.508.049-.508.325 0 .825-1.86 1.283-2.29 1.35.76.298 1.075 1.268 1.075 1.268.552-.558 1.197-1.052 1.339-1.052.147 0 .202.187.213.297l.06.017c.29-.437.151-.536.128-.664-.019-.102.01-.484.431-.44v5.506l-.217.044c-.1.018-.892-.667-1.8-1.304-.909-.638-1.397-.256-2.433.313-1.356.744-2.727.069-2.727.069-1.168.847-1.566 3.297-1.566 3.297a2.672 2.672 0 0 1-.985.208c-.892 0-1.056-.548-1.056-.876 0-1.397 1.724-1.997 1.724-3.373 0-.334-.151-1.694-1.808-1.694l-1.483-.003c-.621 0-.776-.453-.862-.626l-.073.024c.048.116-.071.292-.071.64 0 .56.323.897.927.897.274 0 .532-.078.616-.13l.059.052c-.262.311-.283.894-.176 1.036l.064-.002c.146-.591.692-1.15 1.426-1.15.899 0 .895.776.895.963 0 1.121-1.942 1.944-1.942 3.485 0 1.564 1.628 1.9 2.572 1.651-.055 1.565-1.82 2.098-1.874.979l-.071.004c-.224.554-.136 1.04.552 1.194l-.018.068c-.68.438-.313 2.165-.279 2.672.052.732-.665.645-.724.622l-.013.062c.508.633 1.136.055 1.136.055.475.15.18.561-.135.776l.008.07c.07.006.806.068.935-.525.326.394.804.25.905.198.14-.074.829-.327.898.457l.059-.009c.52-.663-.037-1.072-.347-1.121a.52.52 0 0 1 .816.1l.054-.027c.043-.841-.631-.918-1.068-.552-.02-.086-.166-.56.494-.543l.014-.057c-.512-.549-.933-.05-1.03.07-.23.273-.797.164-.849.157.178-2.924 2.718-1.888 3.066-3.309l.057-.02c.095.347.957.395 1.116-.287l-.027-.045c-.735.745-2.39-1.584-.132-3.475 1.93-1.614 3.657-.714 4.315-.183.034.233-.103.309-.191.337l.009.06c.184.07.443.048.565-.126.414.293.058.662-.11.765l.013.062c.38.07.693-.323.708-.55l.064.036v1.662c0 2.366 2.69 2.694 5.643 4.7 2.952-2.006 5.642-2.334 5.642-4.7v-1.662l.065-.036c.015.227.328.62.708.55l.012-.062c-.167-.103-.523-.472-.109-.765.122.174.381.196.565.126l.008-.06c-.087-.028-.224-.104-.19-.337.658-.531 2.386-1.43 4.315.183 2.258 1.891.602 4.22-.132 3.475l-.027.045c.159.682 1.02.634 1.115.287l.058.02c.35 1.421 2.888.385 3.066 3.309-.052.007-.62.116-.848-.157-.097-.12-.519-.619-1.03-.07l.013.057c.66-.016.515.457.494.543-.437-.366-1.111-.29-1.068.552l.054.026a.52.52 0 0 1 .817-.1c-.31.05-.868.46-.348 1.122l.06.01c.067-.785.755-.532.897-.458.1.052.579.196.905-.198.13.593.865.53.935.526l.008-.071c-.316-.215-.61-.625-.135-.776 0 0 .628.578 1.136-.055l-.013-.062c-.058.023-.776.11-.724-.622.034-.507.402-2.234-.279-2.672l-.017-.068c.687-.154.775-.64.551-1.194l-.07-.004c-.055 1.12-1.82.586-1.875-.979.944.248 2.57-.087 2.57-1.65 0-1.542-1.94-2.365-1.94-3.486 0-.187-.005-.963.895-.963.734 0 1.28.559 1.426 1.15l.064.002c.107-.142.087-.725-.176-1.036l.059-.052c.083.052.342.13.616.13.603 0 .927-.336.927-.896 0-.35-.119-.525-.07-.64l-.074-.025c-.086.173-.241.626-.862.626l-1.483.003c-1.657 0-1.808 1.36-1.808 1.694 0 1.376 1.723 1.976 1.723 3.373 0 .328-.163.876-1.055.876-.366 0-.752-.107-.985-.208 0 0-.398-2.45-1.566-3.297 0 0-1.371.675-2.727-.07-1.036-.568-1.525-.95-2.433-.312-.909.637-1.702 1.322-1.8 1.304l-.218-.044v-5.506c.422-.044.45.338.432.44-.023.128-.16.227.128.664l.059-.017c.011-.11.067-.297.214-.297.142 0 .787.494 1.339 1.052 0 0 .316-.97 1.076-1.268-.432-.067-2.292-.525-2.292-1.35 0-.276-.307-.34-.507-.325-.009-.023-.313-.756-.88-.373l.01.072c.25.058.357.322.368.609-.541-.17-2.85-.827-5.589-.827-1.329 0-2.554.156-3.527.334v1.909h-.763v-1.755ZM19 9.683c2.34 0 3.66.452 3.66.452.013-1.198.005-1.867.683-1.767-.37-1.008 1.226-1.404 1.226-2.716 0-.866-.603-.964-.782-.964-.53 0-.446.35-.897.35l-.113.026c0 .152.126.41.333.41.276 0 .282-.281.488-.281.09 0 .217.073.217.361 0 .559-.361 1.177-.786 1.657-.099-.136-.231-.222-.391-.222-.251 0-.473.268-.473.597 0 .121.02.21.063.312-.142.08-.267.126-.362.126-.193 0-.482-.08-.482-.506 0-.952 1.257-1.79 1.257-2.995 0-.576-.38-1.15-1.171-1.15-.849 0-.691.788-1.427.788l-.06.04c0 .05.127.486.507.486.407 0 .522-.715.882-.715.135 0 .336.081.336.565 0 .377-.183.984-.448 1.567a.528.528 0 0 0-.37-.167c-.315 0-.541.309-.541.678 0 .234.09.46.247.608-.185.241-.375.436-.632.436-.508 0-.733-.292-.733-.61 0-.345.62-.47.62-1.009 0-.365-.234-.572-.459-.572-.243 0-.368.163-.392.163-.025 0-.15-.163-.392-.163-.225 0-.46.207-.46.572 0 .539.62.664.62 1.008 0 .319-.224.611-.732.611-.257 0-.447-.195-.632-.436a.844.844 0 0 0 .246-.608c0-.37-.225-.678-.541-.678a.528.528 0 0 0-.37.167c-.264-.583-.447-1.19-.447-1.567 0-.484.201-.565.336-.565.359 0 .474.715.882.715.38 0 .507-.436.507-.486l-.06-.04c-.736 0-.578-.788-1.427-.788-.792 0-1.171.574-1.171 1.15 0 1.205 1.257 2.043 1.257 2.995 0 .427-.29.506-.482.506-.095 0-.22-.046-.363-.126a.736.736 0 0 0 .063-.312c0-.33-.222-.597-.473-.597-.16 0-.291.086-.39.222-.426-.48-.786-1.098-.786-1.657 0-.288.129-.361.216-.361.207 0 .213.281.49.281.206 0 .332-.258.332-.41l-.113-.027c-.451 0-.367-.349-.897-.349-.18 0-.782.098-.782.964 0 1.312 1.597 1.708 1.226 2.716.68-.1.67.569.683 1.767 0 0 1.32-.452 3.66-.452Zm0-5.704a.588.588 0 0 0-.585.593.59.59 0 0 0 .585.592.589.589 0 0 0 .584-.592.588.588 0 0 0-.584-.593ZM18.707.365c0 .143.06.269.108.337.1.143.083.22.037.268-.046.047-.122.062-.263-.037a.592.592 0 0 0-.332-.111c-.24 0-.36.16-.36.297 0 .137.12.298.36.298.14 0 .263-.06.332-.111.14-.1.217-.083.263-.036.046.045-.02.537-.075.922-.398.085-.59.408-.59.597 0 .486.512.767.813.93.3-.163.813-.444.813-.93 0-.189-.192-.512-.59-.597-.054-.385-.121-.877-.076-.922.046-.047.123-.064.264.036.068.05.192.11.332.11.24 0 .36-.16.36-.297 0-.136-.12-.297-.36-.297a.589.589 0 0 0-.332.111c-.14.1-.218.084-.264.037-.045-.048-.061-.125.037-.268a.609.609 0 0 0 .11-.337C19.293.121 19.133 0 19 0c-.136 0-.293.121-.293.365ZM30.466 9.87c-.12.567-.614.646-.917.303.026-.273.293-.336.917-.303Zm3.61 3.197-.048-.036c-.478.243-.736-.279-.62-.817.064-.3.325-1.113-.326-1.772-.64.37-1.07-.24-.96-.534.03-.078.08-.09.08.01 0 .206.205.356.353.356.258 0 .728-.293.768-.737-.662-.44-1.777-.261-2 .567-.026.104-.15.094-.142-.01.004-.07.034-.561.516-.81.435-.22.276-.55.161-.667l-.108.011c.169.294-.19.425-.688.362-1.051-.142-1.397.254-1.453.53-.23.06-1.124.569-1.124.757l.136.233s-.02.384.259.637c1.117-.685 1.427-.044 1.312.41 0 0-.197.162-.951.164l.1.353s-.172.22-.05.423c0 0 .387-.295 1.055-.264 0 0 .427.66-1.16.97-1.59.31-2.093 1.835-2.093 2.67l.054.055c1.286-.243 1.874 1.11 3.543.957-.146-.398.014-.814.014-.814.132.358.447.592.671.714.593-.135.983-.422 1.072-.594 0 0-.63-.529-.219-1.482 0 0 .395.635 1.212.29l.008-.097c-1.106-.362-.386-1.31-.318-1.404.513.29.947-.092.947-.43Zm-6.274-1.573c-.325 0-.634-.146-.693-.401-.013-.065-.068-.088-.093.008-.155.571.243.839.632.839.429 0 .669-.312 1.28-.417.268-.047.451-.004.451-.087l-.452-.083c-.635 0-.722.141-1.125.141Zm-19.35-1.321c-.304.343-.799.264-.918-.303.624-.033.892.03.917.303ZM4.87 13.498c.068.094.788 1.042-.318 1.404l.008.097c.817.345 1.212-.29 1.212-.29.41.953-.219 1.482-.219 1.482.089.172.48.459 1.072.594.223-.122.54-.356.671-.714 0 0 .16.416.015.814 1.668.154 2.257-1.2 3.542-.957l.054-.055c0-.835-.504-2.36-2.094-2.67-1.586-.31-1.159-.97-1.159-.97.668-.031 1.055.264 1.055.264.122-.203-.05-.423-.05-.423l.1-.353c-.754-.002-.951-.165-.951-.165-.116-.453.194-1.094 1.312-.409.28-.253.259-.637.259-.637l.136-.233c0-.188-.893-.698-1.124-.757-.056-.276-.402-.672-1.453-.53-.498.063-.857-.068-.69-.362l-.106-.011c-.115.117-.275.446.161.668.482.248.512.739.515.81.008.103-.115.113-.142.009-.222-.828-1.337-1.007-1.999-.567.04.444.51.737.768.737.147 0 .353-.15.353-.357 0-.1.05-.087.08-.009.11.295-.32.904-.96.534-.65.659-.39 1.472-.325 1.772.116.538-.143 1.06-.62.817l-.05.036c0 .34.435.722.947.431Zm4.203-2.145-.453.083c0 .083.184.04.453.087.61.105.85.417 1.28.417.388 0 .786-.268.63-.84-.024-.095-.079-.072-.092-.007-.059.255-.368.401-.693.401-.404 0-.49-.141-1.125-.141Zm13.367 3.703h.764v-2.148h-.764v2.148ZM19 24.52h.763v-2.147H19v2.147Z" fill="#FFFFFE" fill-rule="evenodd"/></svg>